<svg fill="#ffffff" xmlns="http://www.w3.org/2000/svg" viewBox="0 0 114 32"><path fill-rule="evenodd" d="M0 16C0 1 6.592-2.75 19.776 4.75c10.754 6.118 12.733 12.235 5.942 18.354l1.027 3.778-4.448-1.176c-.78.515-1.616 1.03-2.521 1.544C6.592 34.75 0 31 0 16ZM71.755 2.792l-.48 7.482h7.676l.53-7.482h3.306l-.53 7.482h5.971l-.182 2.572H71.092l-.257 3.624H83.95l-.911 12.859H79.52l.73-10.287h-9.597l-.116 1.636c-.032 4.442-2.343 7.481-6.937 9.118l.165-2.338c1.92-1.011 2.908-2.922 2.966-5.728l1.292-18.938h3.732Zm-8.274 0L63.3 5.364c-1.317.546-2.827.78-4.528.701h-3.198l-.299 4.793h7.89l-.173 2.455h-2.346L59.509 29.33h-3.092l1.136-16.016H55.1l-.522 7.365c-.09 4.287-1.69 7.287-4.796 9.002l.157-2.222c-2.198-1.09-3.243-3.39-3.136-6.897h2.559c-.172 2.416.267 4.249 1.316 5.495.41-.779.7-2.339.865-4.677L52.76 3.61h5.545c1.914.079 3.64-.193 5.176-.818Zm50.033 0-.175 2.455c-3.316 2.65-6.437 5.845-9.362 7.014H114l-.878 12.392c-.08 3.116-1.535 4.598-4.366 4.442h-2.347l.166-2.338h1.493c1.208 0 1.82-.623 1.839-1.87l.72-10.17h-2.026c-.486 6.858-2.862 11.806-7.13 14.845l.2-2.805c2.259-2.805 3.61-6.818 4.052-12.04h-2.666c-.547 6.703-2.92 11.612-7.122 14.728l.19-2.688c2.343-2.96 3.694-6.974 4.052-12.04h-1.705l.173-2.456c3.524-1.558 6.608-4.753 9.257-7.014h-8.104l.174-2.455h13.542ZM42.981 8.286a10.907 10.907 0 0 0 .498 3.508h2.773c.503-1.092.834-2.26.994-3.508h2.879a14.756 14.756 0 0 1-1.102 3.508h2.346l-.174 2.455h-4.798l-.19 2.688h4.37l-.164 2.338H46.04l-.448 6.313c-.106 2.494-1.293 3.7-3.562 3.624h-2.025l.165-2.338h.96c.917.076 1.377-.389 1.378-1.403l.44-6.196h-4.692l.165-2.338h4.692l.19-2.688H38.08l.174-2.455h2.452a13.308 13.308 0 0 1-.604-3.508Zm-1.083 12.275c-.26 3.665-1.964 6.12-5.107 7.365l.132-1.87c1.368-1.246 2.208-3.078 2.522-5.495ZM96.545 2.792l-.382 5.377h2.24l-.174 2.455h-2.24l-.844 11.925a83.562 83.562 0 0 0 2.403-.819l-.174 2.455A25.926 25.926 0 0 1 89 26.523l.206-2.922c.924 0 1.822-.117 2.691-.351l.895-12.626H90.34l.173-2.455h2.452l.382-5.377h3.199Zm-82.6 8.932c-.503 0-.96.1-1.37.3a2.98 2.98 0 0 0-1.046.853 4.09 4.09 0 0 0-.667 1.324 5.859 5.859 0 0 0-.235 1.717c0 .635.078 1.193.235 1.675.158.482.385.887.681 1.214.297.327.658.574 1.083.741a3.92 3.92 0 0 0 1.445.252 8.456 8.456 0 0 0 1.333-.106c.222-.037.44-.077.653-.122.213-.046.41-.096.59-.153v-1.476a7.99 7.99 0 0 1-1.218.285 7.438 7.438 0 0 1-1.102.088c-.296 0-.565-.046-.808-.137a1.728 1.728 0 0 1-.626-.4 1.789 1.789 0 0 1-.402-.65 2.598 2.598 0 0 1-.142-.899h4.639a15.916 15.916 0 0 0 .041-1.065c0-.503-.067-.964-.201-1.386a3.133 3.133 0 0 0-.59-1.088 2.662 2.662 0 0 0-.967-.712c-.384-.17-.825-.255-1.325-.255Zm5.458.168h-1.61l1 7.733h1.888l.723-2.428.229-.875.23.853.75 2.45h1.88l.994-7.733h-1.535l-.423 4.353-.132 1.226-.326-1.104-.757-2.336H21.02l-.708 2.352-.284 1.073-.119-1.195-.507-4.37Zm-12.595-.168c-.26 0-.493.03-.702.091a2.299 2.299 0 0 0-.583.263c-.18.115-.348.252-.504.415a5.175 5.175 0 0 0-.448.54l-.042-1.141H3.065v7.733h1.694V14.73c.292-.436.568-.78.83-1.034.261-.254.536-.38.823-.38.574 0 .86.423.86 1.27v5.039h1.695v-5.19c0-.412-.045-.784-.135-1.116a2.44 2.44 0 0 0-.407-.853 1.845 1.845 0 0 0-.673-.548 2.157 2.157 0 0 0-.944-.194Zm7.103 1.385c.194 0 .376.036.545.107.169.071.317.18.445.327.127.147.228.334.302.56.073.226.108.491.104.795h-2.931c.052-.568.214-1.008.487-1.32a1.33 1.33 0 0 1 1.048-.469Zm33.2-10.289-.05 2.076h4.264l-.174 2.455H39.209l.174-2.455h4.265l.05-2.076h3.413Z"></path></svg>